# xmcd CD database file generated by freedbAccess_ocx
#
# Track frame offsets:
#       150
#       16385
#       31717
#       44617
#       54390
#       66690
#       79767
#       102307
#       114895
#       125958
#       137170
#       149910
#       164310
#       176575
#       191133
#
# Disc length: 2766 seconds
#
# Revision: 0
# Processed by: cddbd v1.5.1PL0 Copyright (c) Steve Scherf et al.
# Submitted via: CDnGo 1.95
#
DISCID=e20acc0f
DTITLE=Antonio Bribiesca - Leyendas
DYEAR=1900
DGENRE=Country
TTITLE0=Popurri de valses
TTITLE1=Adios mariquita linda
TTITLE2=La negra noche
TTITLE3=Alla en el rancho grande
TTITLE4=El abandonado
TTITLE5=La rondalla
TTITLE6=Estrellita-La paloma-La golondrina
TTITLE7=Tu solo tu
TTITLE8=Las chiapanecas
TTITLE9=Por un amor
TTITLE10=Janitzio
TTITLE11=La barca de oro
TTITLE12=Entre copa y copa
TTITLE13=La borrachita
TTITLE14=Mosaicos de despedidas
EXTD=
EXTT0=
EXTT1=
EXTT2=
EXTT3=
EXTT4=
EXTT5=
EXTT6=
EXTT7=
EXTT8=
EXTT9=
EXTT10=
EXTT11=
EXTT12=
EXTT13=
EXTT14=
PLAYORDER=
